<svg width="271" height="96" viewBox="0 0 271 96" fill="none" xmlns="http://www.w3.org/2000/svg">
<path fill-rule="evenodd" clip-rule="evenodd" d="M134.15 4.90111C134.15 11.369 128.53 13.329 123.101 8.75357C118.835 5.15711 118.827 5.16529 122.423 9.43148C127.271 15.1846 125.03 20.0632 117.08 21.0606L110.597 21.8737L117.254 22.2014C121.61 22.4164 123.91 23.5736 123.91 25.5541C123.91 30.3917 133.354 35.4608 139.496 33.9206C143.215 32.9867 146.22 33.7076 149.241 36.2534C153.597 39.9297 153.599 39.9277 149.839 35.4772C144.852 29.5745 146.963 23.0452 154.218 21.9392L159.752 21.0954L154.339 20.7882C147.535 20.4011 145.245 14.9552 149.779 9.94351C151.67 7.85445 152.266 6.14429 151.103 6.14429C149.941 6.14429 147.887 7.47145 146.539 9.09559C143.113 13.2246 138.247 10.7628 138.247 4.90111C138.247 2.20581 137.325 0 136.199 0C135.072 0 134.15 2.20581 134.15 4.90111ZM193.545 36.7367C193.545 46.6454 193.412 46.8605 186.889 47.4892C180.308 48.1221 180.226 48.2634 179.618 59.9069C179.016 71.4438 178.881 71.6834 172.962 71.6834C167.549 71.6834 166.92 72.3552 166.92 78.1452C166.92 84.2751 166.727 84.4328 163.174 81.2173C161.114 79.3536 156.966 77.8277 153.958 77.8277C148.94 77.8277 148.487 77.1478 148.487 69.6353C148.487 61.8976 148.145 61.4429 142.343 61.4429C136.881 61.4429 136.199 62.125 136.199 67.5872C136.199 73.3895 135.744 73.7315 128.006 73.7315C119.834 73.7315 119.814 73.7131 119.814 65.6559C119.814 59.6304 118.657 56.7692 115.261 54.3914C107.191 48.7386 105.713 50.2624 104.949 65.0271C104.293 77.6516 104.197 77.2481 103.83 60.3636C103.546 47.2476 102.477 40.5134 100.15 37.1914C97.0307 32.7388 96.6805 32.6815 92.9816 36.0301C89.7518 38.9528 89.0452 42.7049 88.8137 58.1762C88.6601 68.4208 88.1358 74.731 87.6463 72.1955C87.0913 69.3138 85.2767 67.5872 82.8046 67.5872C79.4723 67.5872 78.8518 66.1085 78.8518 58.1824V48.7775L72.1955 52.6505C66.4874 55.9725 65.365 57.9694 64.3246 66.6635C63.4194 74.219 63.0282 71.4499 62.7885 55.8107L62.467 34.8177H56.3227H50.1784V50.1784V65.5391H41.986H33.7936V76.3101V87.081L16.8968 91.1588L0 95.2366L66.9257 95.7773C103.736 96.0742 164.565 96.0742 202.1 95.7773L270.349 95.2366L252.94 90.954L235.531 86.6735L234.941 67.9129L234.354 49.1544H228.363H222.372L221.696 68.0993C221.197 82.1246 220.91 79.1979 220.597 56.8347L220.171 26.6253H206.858H193.545V36.7367ZM121.862 33.7936C120.414 35.5386 119.691 37.4249 120.254 37.9881C120.817 38.5514 122.462 37.5867 123.91 35.8417C125.358 34.0967 126.081 32.2104 125.518 31.6472C124.954 31.084 123.31 32.0486 121.862 33.7936ZM134.15 40.962C134.15 43.2149 135.072 45.0582 136.199 45.0582C137.325 45.0582 138.247 43.2149 138.247 40.962C138.247 38.709 137.325 36.8658 136.199 36.8658C135.072 36.8658 134.15 38.709 134.15 40.962Z" fill="#405971"/>
<path fill-rule="evenodd" clip-rule="evenodd" d="M134.15 4.90111C134.15 11.369 128.53 13.329 123.101 8.75357C118.835 5.15711 118.827 5.16529 122.423 9.43148C127.271 15.1846 125.03 20.0632 117.08 21.0606L110.597 21.8737L117.254 22.2014C121.61 22.4164 123.91 23.5736 123.91 25.5541C123.91 30.3917 133.354 35.4608 139.496 33.9206C143.215 32.9867 146.22 33.7076 149.241 36.2534C153.597 39.9297 153.599 39.9277 149.839 35.4772C144.852 29.5745 146.963 23.0452 154.218 21.9392L159.752 21.0954L154.339 20.7882C147.535 20.4011 145.245 14.9552 149.779 9.94351C151.67 7.85445 152.266 6.14429 151.103 6.14429C149.941 6.14429 147.887 7.47145 146.539 9.09559C143.113 13.2246 138.247 10.7628 138.247 4.90111C138.247 2.20581 137.325 0 136.199 0C135.072 0 134.15 2.20581 134.15 4.90111ZM193.545 36.7367C193.545 46.6454 193.412 46.8605 186.889 47.4892C180.308 48.1221 180.226 48.2634 179.618 59.9069C179.016 71.4438 178.881 71.6834 172.962 71.6834C167.549 71.6834 166.92 72.3552 166.92 78.1452C166.92 84.2751 166.727 84.4328 163.174 81.2173C161.114 79.3536 156.966 77.8277 153.958 77.8277C148.94 77.8277 148.487 77.1478 148.487 69.6353C148.487 61.8976 148.145 61.4429 142.343 61.4429C136.881 61.4429 136.199 62.125 136.199 67.5872C136.199 73.3895 135.744 73.7315 128.006 73.7315C119.834 73.7315 119.814 73.7131 119.814 65.6559C119.814 59.6304 118.657 56.7692 115.261 54.3914C107.191 48.7386 105.713 50.2624 104.949 65.0271C104.293 77.6516 104.197 77.2481 103.83 60.3636C103.546 47.2476 102.477 40.5134 100.15 37.1914C97.0307 32.7388 96.6805 32.6815 92.9816 36.0301C89.7518 38.9528 89.0452 42.7049 88.8137 58.1762C88.6601 68.4208 88.1358 74.731 87.6463 72.1955C87.0913 69.3138 85.2767 67.5872 82.8046 67.5872C79.4723 67.5872 78.8518 66.1085 78.8518 58.1824V48.7775L72.1955 52.6505C66.4874 55.9725 65.365 57.9694 64.3246 66.6635C63.4194 74.219 63.0282 71.4499 62.7885 55.8107L62.467 34.8177H56.3227H50.1784V50.1784V65.5391H41.986H33.7936V76.3101V87.081L16.8968 91.1588L0 95.2366L66.9257 95.7773C103.736 96.0742 164.565 96.0742 202.1 95.7773L270.349 95.2366L252.94 90.954L235.531 86.6735L234.941 67.9129L234.354 49.1544H228.363H222.372L221.696 68.0993C221.197 82.1246 220.91 79.1979 220.597 56.8347L220.171 26.6253H206.858H193.545V36.7367ZM121.862 33.7936C120.414 35.5386 119.691 37.4249 120.254 37.9881C120.817 38.5514 122.462 37.5867 123.91 35.8417C125.358 34.0967 126.081 32.2104 125.518 31.6472C124.954 31.084 123.31 32.0486 121.862 33.7936ZM134.15 40.962C134.15 43.2149 135.072 45.0582 136.199 45.0582C137.325 45.0582 138.247 43.2149 138.247 40.962C138.247 38.709 137.325 36.8658 136.199 36.8658C135.072 36.8658 134.15 38.709 134.15 40.962Z" fill="#405971"/>
</svg>
