<?xml version="1.0" encoding="UTF-8" standalone="no"?>
<svg
   xmlns:dc="http://purl.org/dc/elements/1.1/"
   xmlns:cc="http://creativecommons.org/ns#"
   xmlns:rdf="http://www.w3.org/1999/02/22-rdf-syntax-ns#"
   xmlns:svg="http://www.w3.org/2000/svg"
   xmlns="http://www.w3.org/2000/svg"
   xmlns:sodipodi="http://sodipodi.sourceforge.net/DTD/sodipodi-0.dtd"
   xmlns:inkscape="http://www.inkscape.org/namespaces/inkscape"
   width="471"
   height="76"
   viewBox="0 0 471 76"
   version="1.1"
   id="svg22"
   sodipodi:docname="SalãoCondoHeader.svg"
   inkscape:version="0.92.4 (5da689c313, 2019-01-14)"
   style="fill:none">
  <metadata
     id="metadata28">
    <rdf:RDF>
      <cc:Work
         rdf:about="">
        <dc:format>image/svg+xml</dc:format>
        <dc:type
           rdf:resource="http://purl.org/dc/dcmitype/StillImage" />
        <dc:title></dc:title>
      </cc:Work>
    </rdf:RDF>
  </metadata>
  <defs
     id="defs26" />
  <sodipodi:namedview
     pagecolor="#ffffff"
     bordercolor="#666666"
     borderopacity="1"
     objecttolerance="10"
     gridtolerance="10"
     guidetolerance="10"
     inkscape:pageopacity="0"
     inkscape:pageshadow="2"
     inkscape:window-width="1366"
     inkscape:window-height="745"
     id="namedview24"
     showgrid="false"
     inkscape:snap-global="false"
     inkscape:zoom="1.8101934"
     inkscape:cx="288.23205"
     inkscape:cy="64.817028"
     inkscape:window-x="-8"
     inkscape:window-y="760"
     inkscape:window-maximized="1"
     inkscape:current-layer="svg22" />
  <path
     style="fill:#000000;fill-opacity:0;fill-rule:evenodd"
     id="path902"
     d="m 127.53375,-21.787302 c -0.049,1.719156 -0.0354,3.439689 -0.0316,5.159414 -0.008,1.742135 0.005,3.484278 0.002,5.226406 0.0182,1.662003 0.004,3.323426 -0.0138,4.985272 0.002,1.836557 0.006,3.673139 0.0165,5.509678 -0.0104,1.777419 -0.0117,3.554718 -0.001,5.332135 -0.0255,1.933653 -0.0162,3.867733 -0.004,5.80149 0.006,1.542234 0.009,3.084482 0.0159,4.626729 -0.0156,1.552162 -0.01,3.10434 -0.003,4.656529 0.0164,1.423475 -0.003,2.846868 -0.006,4.27032 0.003,1.536054 2.3e-4,3.072064 0.006,4.608118 0.0157,1.464561 -0.007,2.928896 -0.006,4.393449 -0.002,1.534279 0.002,3.068529 0.009,4.602803 0.025,1.369315 0.0301,2.730968 -0.14201,4.090989 -0.20552,1.316084 -0.29637,2.643216 -0.54578,3.952017 -0.27123,1.489417 -0.64226,2.955346 -0.86871,4.453237 -0.24585,1.434297 -0.58889,2.846581 -0.93694,4.25845 -0.21717,1.241997 -0.52995,2.463796 -0.77552,3.699922 -0.26146,1.01825 -0.5841,2.007422 -0.73943,3.050273 -0.0592,1.029543 -0.36893,2.01521 -0.5405,3.027008 -0.0535,1.040934 -0.29067,2.044808 -0.50619,3.05932 -0.127,0.740636 0.24092,1.185532 0.91618,1.401563 1.09651,0.185116 2.16006,0.469923 3.26728,0.612126 1.34397,0.04468 2.64153,0.391906 3.96767,0.581709 1.18687,0.151134 2.38454,0.169011 3.57919,0.182052 1.22396,0.07691 2.47886,0.281689 3.6728,0.583222 1.44974,0.275917 2.87797,0.634711 4.33345,0.879907 1.65646,0.317338 3.27706,0.768174 4.91742,1.152162 1.26833,0.172713 2.48672,0.557031 3.74936,0.763027 1.09468,0.31194 2.14467,0.760238 3.24884,1.034188 1.39676,0.174244 2.74,0.567483 4.088,0.957672 1.25108,0.329174 2.52424,0.439144 3.7694,0.78354 1.01511,0.321777 2.09702,0.212095 3.11494,0.481486 0.97016,0.350336 2.02064,0.283224 2.9969,0.57315 0.96742,0.327039 1.98302,0.413649 2.99527,0.470669 1.17542,0.0972 2.32527,0.39101 3.5039,0.51704 1.17606,0.10514 2.35776,0.11132 3.53757,0.11797 1.18687,0.003 2.37375,-4.1e-4 3.56063,-0.002 1.18753,-0.002 2.37507,-0.002 3.5626,-0.002 1.2482,-0.12046 2.44214,0.14271 3.66539,0.32637 1.59918,0.20132 3.21217,0.2404 4.82186,0.2666 1.71645,-0.0234 3.41411,0.0174 5.1172,0.22889 1.64806,0.23429 3.31188,0.30686 4.97398,0.35109 1.52253,0.0301 3.04545,0.0299 4.56822,0.0292 1.67566,0.006 3.35132,-0.002 5.02698,-1.6e-4 1.55759,-0.006 3.11518,-0.003 4.67278,-0.006 1.63064,-0.008 3.2612,0.008 4.89183,0.0125 1.81391,0.0106 3.62778,-0.0106 5.44168,-0.009 1.56052,-10e-4 3.12106,-0.005 4.68158,-6.7e-4 1.88501,0.0166 3.77005,0.008 5.65513,0.008 1.67264,-0.003 3.3453,-0.01 5.01795,-0.007 1.81876,-0.0333 3.63814,0.0894 5.45055,-0.0828 1.89951,-0.23644 3.80444,-0.37714 5.71625,-0.45416 1.87939,-0.0745 3.76032,-0.0472 5.64053,-0.0447 2.11378,-5.3e-4 4.22753,-0.003 6.34132,-0.001 2.02694,-0.0133 4.0538,0.005 6.08069,0.007 1.9961,-0.19423 3.98972,-0.39826 5.99165,-0.52335 1.6484,-0.0811 3.29878,-0.0865 4.94871,-0.095 1.97696,-0.0583 3.94941,-0.29857 5.92453,-0.44021 1.68095,-0.17013 3.38295,-0.021 5.0554,-0.25357 1.44772,-0.23942 2.9041,-0.401672 4.37073,-0.442974 1.55718,-0.125937 3.04218,-0.589118 4.56684,-0.879231 1.34463,-0.209579 2.67956,-0.259476 3.99722,-0.597641 l -7.00505,5.327506 v 0 c -1.3146,0.24859 -2.66681,0.24346 -3.97138,0.56538 -1.53183,0.35368 -3.07151,0.6726 -4.64578,0.76764 -1.45431,0.10854 -2.89868,0.29139 -4.34504,0.47573 -1.67691,0.10352 -3.36052,0.067 -5.03618,0.20975 -1.99798,0.1435 -3.99035,0.40885 -5.99479,0.41903 -1.63461,0.006 -3.27022,0.0246 -4.90221,0.12515 -1.99655,0.1302 -3.98418,0.37452 -5.98392,0.44882 -2.03272,0.002 -4.06542,0.0202 -6.09817,0.005 -2.1094,-6.5e-4 -4.21876,-0.007 -6.32816,-0.006 -1.88282,0.007 -3.76618,0.0276 -5.64786,0.0967 -1.90022,0.093 -3.79125,0.28564 -5.68552,0.45765 -1.83862,0.0795 -3.67971,0.0571 -5.51982,0.0592 -1.66651,0.003 -3.33302,-0.003 -4.99952,-0.007 -1.89211,-1.2e-4 -3.78418,-0.009 -5.67623,0.008 -1.55991,0.004 -3.11984,4.7e-4 -4.67975,-6.7e-4 -1.80558,0.002 -3.61113,-0.0197 -5.41672,-0.009 -1.64206,0.005 -3.28404,0.0204 -4.92611,0.0125 -1.5527,-0.003 -3.10539,4.1e-4 -4.65809,-0.004 -1.67897,0.004 -3.35796,-0.002 -5.03693,0.006 -1.52858,-0.002 -3.05781,0.003 -4.58555,-0.0549 -1.67194,-0.075 -3.34361,-0.18114 -5.00206,-0.41486 -1.69178,-0.17567 -3.38568,-0.12389 -5.08423,-0.15613 -1.63739,-0.0524 -3.27776,-0.11704 -4.90208,-0.34392 -1.19771,-0.17987 -2.38776,-0.27191 -3.60124,-0.211 -1.18735,3.8e-4 -2.37471,0.001 -3.56206,0.003 -1.18886,0.001 -2.37777,0.005 -3.5666,-0.006 -1.20018,-0.0183 -2.40286,-0.0456 -3.59493,-0.19903 -1.16219,-0.1635 -2.30939,-0.44137 -3.48635,-0.47796 -1.04505,-0.0988 -2.07258,-0.2779 -3.0815,-0.57355 -0.99936,-0.15588 -2.00128,-0.28629 -2.9802,-0.55222 -1.05465,-0.13187 -2.12029,-0.20694 -3.14119,-0.52973 -1.23981,-0.31404 -2.52648,-0.41375 -3.74539,-0.82213 -1.35339,-0.38652 -2.72962,-0.64577 -4.10487,-0.93718 -1.06713,-0.32703 -2.11702,-0.71511 -3.20594,-0.96833 -1.25696,-0.2573 -2.50112,-0.5742 -3.76059,-0.81989 -1.61114,-0.420494 -3.22478,-0.825758 -4.86595,-1.116209 -1.46374,-0.271963 -2.91955,-0.585964 -4.37726,-0.888142 -1.18616,-0.209006 -2.37767,-0.457241 -3.58765,-0.435155 -1.21846,-0.03088 -2.43923,-0.08322 -3.64362,-0.284859 -1.31402,-0.224879 -2.62081,-0.476602 -3.95243,-0.579205 -1.16531,-0.186733 -2.34877,-0.40341 -3.45908,-0.804837 -0.8943,-0.536724 -1.486,-1.329333 -1.47506,-2.412498 0.17134,-1.016742 0.53379,-1.98471 0.52559,-3.026186 0.12505,-1.022753 0.43644,-1.996721 0.55181,-3.011879 0.10673,-1.065874 0.29395,-2.114182 0.72849,-3.102084 0.21315,-1.261741 0.58892,-2.482747 0.76901,-3.750248 0.32837,-1.396676 0.7093,-2.775386 0.97639,-4.186071 0.2053,-1.511769 0.56931,-2.98674 0.84954,-4.483775 0.23441,-1.302218 0.39551,-2.604477 0.56484,-3.918405 0.20454,-1.324667 0.22838,-2.640736 0.1961,-3.981445 0.007,-1.537219 0.0104,-3.074412 0.009,-4.611635 8e-4,-1.462348 -0.0222,-2.924475 -0.007,-4.386832 0.006,-1.538141 0.003,-3.076237 0.006,-4.614377 -0.003,-1.421311 -0.0228,-2.84256 -0.006,-4.263894 0.007,-1.55124 0.0129,-3.102469 -0.003,-4.653681 0.007,-1.547653 0.0103,-3.095307 0.0159,-4.642947 0.0118,-1.932321 0.0214,-3.86497 -0.004,-5.797185 0.0107,-1.777065 0.009,-3.554013 -0.001,-5.33108 0.01,-1.842135 0.0147,-3.684312 0.0165,-5.526465 -0.0175,-1.657159 -0.0319,-3.313893 -0.0138,-4.971215 -0.003,-1.742682 0.01,-3.485379 0.002,-5.228069 0.004,-1.708985 0.0177,-3.418817 -0.0316,-5.127216 l 7.85081,-4.000186 z"
     inkscape:connector-curvature="0"
     sodipodi:nodetypes="ccccccccccccccccccccccccccccccccccccccccccccccccccccccccccccccccccccccccccccccccccccccccccccccccccccccccccccccccccccccccccccccccc" />
  <g
     style="fill:#ffffff"
     id="g37"
     transform="matrix(0.95260617,0,0,0.88121074,0.78704407,-15.71698)">
    <path
       id="path26"
       d="m 221.41063,62.326927 v 23.722722 h 4.75984 4.75983 V 62.326927 38.604205 h -4.75983 -4.75984 z M 446.70949,46.717376 v 8.113172 l -5.02427,-0.487696 c -5.56688,-0.540657 -10.33835,2.004846 -14.35037,7.655268 -2.8284,3.98321 -2.70993,11.738885 0.25598,16.746034 3.30543,5.578702 7.51101,7.180813 18.89125,7.199571 l 9.74708,0.01655 V 62.282792 38.604205 h -4.75983 -4.75984 z M 157.4173,41.205981 c -7.51843,3.626817 -10.75617,11.59986 -7.43381,18.302908 1.35814,2.739699 3.6619,4.499593 9.69737,7.408109 6.68281,3.220774 7.86431,4.19175 7.58612,6.233008 -0.48445,3.550684 -6.4977,3.929144 -10.71809,0.675269 l -3.18909,-2.459438 -3.05476,3.567234 c -3.60477,4.208301 -2.90773,5.811516 3.93904,9.060977 8.83319,4.190646 19.81677,1.217031 23.23222,-6.291487 3.66613,-8.059104 0.70446,-14.315283 -8.56876,-18.102092 -7.27303,-2.969202 -10.56049,-6.151357 -8.73271,-8.449701 1.63738,-2.057808 3.98451,-1.900025 8.39105,0.562725 l 3.71268,2.076565 2.83157,-4.110099 2.83158,-4.108998 -4.06914,-2.385523 c -5.29293,-3.102711 -12.36393,-3.954509 -16.45527,-1.979457 z m 168.46008,-0.441353 c -16.12844,5.298442 -21.79582,24.473022 -11.01848,37.277775 4.17489,4.9586 10.41451,7.958697 16.55682,7.958697 5.29293,0 12.21902,-2.876518 15.11723,-6.278245 1.84152,-2.161526 1.80239,-2.308276 -1.40257,-5.120798 -3.75815,-3.299113 -4.94916,-3.482275 -7.83468,-1.205997 -1.12967,0.89043 -3.91365,1.619765 -6.18779,1.619765 -5.43785,0 -11.32735,-5.707797 -11.32735,-10.978654 0,-5.146176 2.83052,-9.949199 6.91128,-11.727852 4.97455,-2.168147 7.02235,-1.978365 11.2988,1.049316 l 3.69574,2.61612 4.02788,-3.527514 4.02681,-3.526398 -3.60901,-2.813637 c -1.98537,-1.546943 -4.56204,-3.322285 -5.72555,-3.945697 -3.1711,-1.698104 -11.24802,-2.474885 -14.52913,-1.396881 z m -79.90282,2.867702 c -1.3391,0.977597 -2.35136,2.877622 -2.35136,4.41353 0,3.151249 1.25554,3.434818 3.73911,0.844088 1.41526,-1.476326 2.12607,-1.586686 3.51276,-0.54399 4.64137,3.491113 6.34116,3.859643 9.09975,1.975065 1.68074,-1.149724 2.68772,-2.861059 2.68772,-4.570199 0,-3.197602 -0.76369,-3.377476 -4.07442,-0.957758 -2.2752,1.662798 -2.56079,1.627489 -4.50704,-0.551691 -2.47087,-2.76618 -4.90474,-2.949319 -8.10652,-0.609045 z m -53.96173,12.260774 c -3.88296,1.99602 -8.69357,9.610462 -8.6576,13.702907 0.0402,4.572417 3.90624,11.881222 7.48563,14.151983 2.7734,1.759895 5.34583,2.158216 13.93574,2.158216 h 10.53404 l -0.42627,-10.175393 c -0.33953,-8.07676 -0.91389,-10.996309 -2.78503,-14.155292 -4.12625,-6.964551 -12.81348,-9.422886 -20.08651,-5.682421 z m 52.92303,0.359704 c -10.05595,6.395204 -10.0898,21.189355 -0.0634,27.550355 2.71099,1.720173 5.34054,2.146078 13.23129,2.146078 h 9.84757 V 75.680062 c 0,-8.839197 -0.33425,-10.789977 -2.40107,-14.01737 -4.61599,-7.208397 -13.93997,-9.6557 -20.61432,-5.409884 z m 36.77554,-0.154474 c -4.95763,2.773903 -8.83319,10.398276 -7.91296,15.568726 1.61093,9.049942 7.28572,14.382589 15.30763,14.382589 6.06086,0 10.94762,-3.339938 13.76333,-9.405231 6.39192,-13.773523 -8.1023,-27.849372 -21.158,-20.546084 z m 79.73993,-0.470041 c -7.26985,3.30132 -10.81117,14.080263 -7.08793,21.572229 1.05034,2.111875 3.57518,5.011563 5.61132,6.44265 3.06428,2.154906 4.68791,2.520125 9.42554,2.122908 5.10677,-0.427009 6.17403,-0.983113 9.90469,-5.155003 4.06066,-4.540418 4.16855,-4.865916 3.72958,-11.1894 -0.34376,-4.961911 -1.06514,-7.198468 -3.02936,-9.390888 -5.27708,-5.893165 -11.84142,-7.450038 -18.55384,-4.402496 z m 32.76036,3.242841 -4.62022,4.820678 v 11.242362 11.242364 l 4.49541,-0.339841 4.49539,-0.338739 0.31098,-9.323581 c 0.33002,-9.914995 1.23967,-12.202306 4.84234,-12.175825 4.59271,0.03531 5.39871,1.633006 5.95296,11.801778 l 0.52888,9.697628 4.49539,0.338739 4.49541,0.339841 V 75.163679 c 0,-10.270284 -0.18616,-11.243467 -2.77023,-14.446586 -3.69257,-4.577934 -7.82094,-6.665533 -13.18263,-6.665533 -3.81104,0 -5.06128,0.666443 -9.04368,4.819574 z m 76.20285,-2.733079 c -6.20578,3.947903 -8.09808,7.628786 -7.60622,14.796359 0.3829,5.585322 0.92552,6.907174 4.25846,10.385035 3.224,3.362006 4.69743,4.057137 9.44774,4.455458 4.63291,0.38839 6.28405,0.01103 9.3314,-2.131735 9.55246,-6.715185 9.6064,-20.467743 0.10788,-27.086934 -4.45519,-3.104918 -11.03647,-3.282563 -15.53926,-0.418183 z M 69.310468,37.368895 c 0,3.484481 -2.902442,4.540418 -5.706513,2.075462 -2.203275,-1.937541 -2.207506,-1.933126 -0.350113,0.365219 2.503674,3.099401 1.346505,5.727658 -2.759646,6.265005 l -3.347751,0.438043 3.437659,0.176542 c 2.249815,0.115854 3.437659,0.739266 3.437659,1.806237 0,2.606189 4.877244,5.33706 8.049409,4.507316 1.920858,-0.503142 3.472565,-0.114752 5.032727,1.256753 2.24982,1.980571 2.250878,1.979468 0.308861,-0.418182 -2.575594,-3.179948 -1.485063,-6.697531 2.261455,-7.293357 l 2.858021,-0.454594 -2.795615,-0.165508 c -3.51382,-0.208538 -4.696369,-3.142432 -2.354535,-5.84241 0.976299,-1.12545 1.284102,-2.046773 0.6833,-2.046773 -0.599739,0 -1.660654,0.714991 -2.356641,1.589973 -1.769602,2.22442 -4.282795,0.898153 -4.282795,-2.259726 0,-1.452052 -0.475983,-2.640395 -1.057741,-2.640395 -0.581757,0 -1.057741,1.188343 -1.057741,2.640395 z M 202.44111,65.124002 c 2.34501,1.309715 2.8432,7.515138 0.77637,9.671147 -2.18423,2.278484 -6.98531,1.57563 -8.78348,-1.285441 -3.57304,-5.690143 2.13241,-11.664958 8.00711,-8.385706 z m 54.05586,0.684097 c 3.75604,3.545168 1.3867,10.311109 -3.61113,10.311109 -5.14909,0 -7.78498,-6.146944 -4.33885,-10.119121 2.17682,-2.50909 5.41246,-2.587431 7.94998,-0.191988 z m 36.89401,0.436939 c 3.56882,3.722813 0.83456,9.87417 -4.38963,9.87417 -4.03739,0 -6.71771,-4.067067 -5.28024,-8.010557 1.66382,-4.565795 6.23538,-5.446296 9.66987,-1.863613 z m 78.67267,-0.529623 c 5.45689,5.693453 -2.31329,13.983165 -8.03883,8.577695 -2.5206,-2.378892 -2.45397,-5.355819 0.18087,-8.104344 2.54069,-2.650325 5.59333,-2.834589 7.85796,-0.473351 z m 73.23588,1.151932 c 1.62469,2.586328 1.65113,3.187671 0.25385,5.792757 -3.07167,5.727658 -10.47904,3.893837 -10.47904,-2.592948 0,-6.303625 6.91657,-8.467357 10.22519,-3.199809 z m 36.4963,-1.059248 c 2.36828,2.235453 2.45607,4.630896 0.28771,7.858289 -3.08544,4.596692 -9.98826,2.097531 -9.98826,-3.615783 0,-5.371266 5.81335,-7.913459 9.70055,-4.242506 z M 99.985001,54.51987 c 0,5.338164 -0.06872,5.454019 -3.437666,5.792758 -3.398531,0.340945 -3.44084,0.417078 -3.754989,6.689807 -0.310977,6.215354 -0.380787,6.344449 -3.437663,6.344449 -2.795618,0 -3.120345,0.36191 -3.120345,3.481171 0,3.302424 -0.09943,3.387385 -1.934613,1.655074 -1.064088,-1.004078 -3.206017,-1.826098 -4.759844,-1.826098 -2.591469,0 -2.82523,-0.366322 -2.82523,-4.41353 0,-4.168578 -0.176643,-4.413529 -3.173219,-4.413529 -2.820995,0 -3.173223,0.367426 -3.173223,3.310148 0,3.125881 -0.234818,3.310147 -4.230964,3.310147 -4.220387,0 -4.230965,-0.01 -4.230965,-4.350638 0,-3.24615 -0.597624,-4.787576 -2.351358,-6.068603 -4.167501,-3.045335 -4.93119,-2.224418 -5.325727,5.729865 -0.338477,6.801249 -0.388191,6.583883 -0.577526,-2.512402 -0.147027,-7.066061 -0.699167,-10.693982 -1.900761,-12.483668 -1.61094,-2.398753 -1.791814,-2.429648 -3.702094,-0.625617 -1.668058,1.574526 -2.032979,3.595922 -2.152503,11.930873 -0.07933,5.519119 -0.350113,8.91864 -0.602913,7.552653 -0.286648,-1.55246 -1.223807,-2.48261 -2.5005,-2.48261 -1.720945,0 -2.04144,-0.796643 -2.04144,-5.066733 v -5.066732 l -3.437659,2.086497 c -2.947925,1.789686 -3.527566,2.865484 -4.0649,7.549342 -0.467521,4.070378 -0.669549,2.578605 -0.793305,-5.846823 L 32.289528,53.486 h -3.173224 -3.173222 v 8.275369 8.275368 h -4.230965 -4.230965 v 5.802688 5.802688 L 8.7547894,83.838947 0.02842711,86.035782 34.592231,86.327074 c 19.010781,0.159992 50.425704,0.159992 69.810959,0 l 35.24713,-0.291292 -8.9908,-2.307173 -8.9908,-2.30607 -0.30462,-10.106981 -0.30358,-10.10588 h -3.09389 -3.0939 l -0.34904,10.206287 c -0.25809,7.555962 -0.40618,5.979229 -0.56801,-6.068603 l -0.22002,-16.274891 h -6.87532 -6.875339 z M 62.964022,52.93431 c -0.747823,0.940081 -1.121207,1.956296 -0.830327,2.259727 0.290879,0.30343 1.140244,-0.216263 1.888068,-1.156345 0.747822,-0.940082 1.121205,-1.956297 0.830326,-2.259727 -0.290878,-0.30343 -1.140245,0.216263 -1.888067,1.156345 z m 6.346446,3.861838 c 0,1.213721 0.475984,2.206765 1.057741,2.206765 0.581758,0 1.057741,-0.993044 1.057741,-2.206765 0,-1.21372 -0.475983,-2.206765 -1.057741,-2.206765 -0.581757,0 -1.057741,0.993045 -1.057741,2.206765 z"
       inkscape:connector-curvature="0"
       style="clip-rule:evenodd;fill:#ffffff;fill-opacity:1;fill-rule:evenodd;stroke-width:1.08032072"
       sodipodi:nodetypes="ccccccccccccccccccccccccccccccccccccccccscccsscccccccccscccsccccccsccccccscsccccsccccccccccccccccccccccscsccscccccscccccscccccccscssscccccsccsccsccscccsccsscsscsscsssssscccccccsscccccccccccccccccccccccccccccssssssssssss" />
  </g>
</svg>
