<?xml version="1.0" encoding="UTF-8" standalone="no"?>
<svg
   xmlns:dc="http://purl.org/dc/elements/1.1/"
   xmlns:cc="http://creativecommons.org/ns#"
   xmlns:rdf="http://www.w3.org/1999/02/22-rdf-syntax-ns#"
   xmlns:svg="http://www.w3.org/2000/svg"
   xmlns="http://www.w3.org/2000/svg"
   xmlns:sodipodi="http://sodipodi.sourceforge.net/DTD/sodipodi-0.dtd"
   xmlns:inkscape="http://www.inkscape.org/namespaces/inkscape"
   width="491"
   height="76"
   viewBox="0 0 491 76"
   version="1.1"
   id="svg22"
   sodipodi:docname="SalãoCondoLight.svg"
   inkscape:version="0.92.4 (5da689c313, 2019-01-14)"
   style="fill:none">
  <metadata
     id="metadata28">
    <rdf:RDF>
      <cc:Work
         rdf:about="">
        <dc:format>image/svg+xml</dc:format>
        <dc:type
           rdf:resource="http://purl.org/dc/dcmitype/StillImage" />
        <dc:title></dc:title>
      </cc:Work>
    </rdf:RDF>
  </metadata>
  <defs
     id="defs26" />
  <sodipodi:namedview
     pagecolor="#ffffff"
     bordercolor="#666666"
     borderopacity="1"
     objecttolerance="10"
     gridtolerance="10"
     guidetolerance="10"
     inkscape:pageopacity="0"
     inkscape:pageshadow="2"
     inkscape:window-width="1366"
     inkscape:window-height="745"
     id="namedview24"
     showgrid="false"
     inkscape:snap-global="false"
     inkscape:zoom="1.8101934"
     inkscape:cx="288.23205"
     inkscape:cy="20.622854"
     inkscape:window-x="-8"
     inkscape:window-y="760"
     inkscape:window-maximized="1"
     inkscape:current-layer="g37" />
  <path
     style="fill:#000000;fill-opacity:0;fill-rule:evenodd"
     id="path902"
     d="m 127.53375,-21.787302 c -0.049,1.719156 -0.0354,3.439689 -0.0316,5.159414 -0.008,1.742135 0.005,3.484278 0.002,5.226406 0.0182,1.662003 0.004,3.323426 -0.0138,4.985272 0.002,1.836557 0.006,3.673139 0.0165,5.509678 -0.0104,1.777419 -0.0117,3.554718 -0.001,5.332135 -0.0255,1.933653 -0.0162,3.867733 -0.004,5.80149 0.006,1.542234 0.009,3.084482 0.0159,4.626729 -0.0156,1.552162 -0.01,3.10434 -0.003,4.656529 0.0164,1.423475 -0.003,2.846868 -0.006,4.27032 0.003,1.536054 2.3e-4,3.072064 0.006,4.608118 0.0157,1.464561 -0.007,2.928896 -0.006,4.393449 -0.002,1.534279 0.002,3.068529 0.009,4.602803 0.025,1.369315 0.0301,2.730968 -0.14201,4.090989 -0.20552,1.316084 -0.29637,2.643216 -0.54578,3.952017 -0.27123,1.489417 -0.64226,2.955346 -0.86871,4.453237 -0.24585,1.434297 -0.58889,2.846581 -0.93694,4.25845 -0.21717,1.241997 -0.52995,2.463796 -0.77552,3.699922 -0.26146,1.01825 -0.5841,2.007422 -0.73943,3.050273 -0.0592,1.029543 -0.36893,2.01521 -0.5405,3.027008 -0.0535,1.040934 -0.29067,2.044808 -0.50619,3.05932 -0.127,0.740636 0.24092,1.185532 0.91618,1.401563 1.09651,0.185116 2.16006,0.469923 3.26728,0.612126 1.34397,0.04468 2.64153,0.391906 3.96767,0.581709 1.18687,0.151134 2.38454,0.169011 3.57919,0.182052 1.22396,0.07691 2.47886,0.281689 3.6728,0.583222 1.44974,0.275917 2.87797,0.634711 4.33345,0.879907 1.65646,0.317338 3.27706,0.768174 4.91742,1.152162 1.26833,0.172713 2.48672,0.557031 3.74936,0.763027 1.09468,0.31194 2.14467,0.760238 3.24884,1.034188 1.39676,0.174244 2.74,0.567483 4.088,0.957672 1.25108,0.329174 2.52424,0.439144 3.7694,0.78354 1.01511,0.321777 2.09702,0.212095 3.11494,0.481486 0.97016,0.350336 2.02064,0.283224 2.9969,0.57315 0.96742,0.327039 1.98302,0.413649 2.99527,0.470669 1.17542,0.0972 2.32527,0.39101 3.5039,0.51704 1.17606,0.10514 2.35776,0.11132 3.53757,0.11797 1.18687,0.003 2.37375,-4.1e-4 3.56063,-0.002 1.18753,-0.002 2.37507,-0.002 3.5626,-0.002 1.2482,-0.12046 2.44214,0.14271 3.66539,0.32637 1.59918,0.20132 3.21217,0.2404 4.82186,0.2666 1.71645,-0.0234 3.41411,0.0174 5.1172,0.22889 1.64806,0.23429 3.31188,0.30686 4.97398,0.35109 1.52253,0.0301 3.04545,0.0299 4.56822,0.0292 1.67566,0.006 3.35132,-0.002 5.02698,-1.6e-4 1.55759,-0.006 3.11518,-0.003 4.67278,-0.006 1.63064,-0.008 3.2612,0.008 4.89183,0.0125 1.81391,0.0106 3.62778,-0.0106 5.44168,-0.009 1.56052,-10e-4 3.12106,-0.005 4.68158,-6.7e-4 1.88501,0.0166 3.77005,0.008 5.65513,0.008 1.67264,-0.003 3.3453,-0.01 5.01795,-0.007 1.81876,-0.0333 3.63814,0.0894 5.45055,-0.0828 1.89951,-0.23644 3.80444,-0.37714 5.71625,-0.45416 1.87939,-0.0745 3.76032,-0.0472 5.64053,-0.0447 2.11378,-5.3e-4 4.22753,-0.003 6.34132,-0.001 2.02694,-0.0133 4.0538,0.005 6.08069,0.007 1.9961,-0.19423 3.98972,-0.39826 5.99165,-0.52335 1.6484,-0.0811 3.29878,-0.0865 4.94871,-0.095 1.97696,-0.0583 3.94941,-0.29857 5.92453,-0.44021 1.68095,-0.17013 3.38295,-0.021 5.0554,-0.25357 1.44772,-0.23942 2.9041,-0.401672 4.37073,-0.442974 1.55718,-0.125937 3.04218,-0.589118 4.56684,-0.879231 1.34463,-0.209579 2.67956,-0.259476 3.99722,-0.597641 l -7.00505,5.327506 v 0 c -1.3146,0.24859 -2.66681,0.24346 -3.97138,0.56538 -1.53183,0.35368 -3.07151,0.6726 -4.64578,0.76764 -1.45431,0.10854 -2.89868,0.29139 -4.34504,0.47573 -1.67691,0.10352 -3.36052,0.067 -5.03618,0.20975 -1.99798,0.1435 -3.99035,0.40885 -5.99479,0.41903 -1.63461,0.006 -3.27022,0.0246 -4.90221,0.12515 -1.99655,0.1302 -3.98418,0.37452 -5.98392,0.44882 -2.03272,0.002 -4.06542,0.0202 -6.09817,0.005 -2.1094,-6.5e-4 -4.21876,-0.007 -6.32816,-0.006 -1.88282,0.007 -3.76618,0.0276 -5.64786,0.0967 -1.90022,0.093 -3.79125,0.28564 -5.68552,0.45765 -1.83862,0.0795 -3.67971,0.0571 -5.51982,0.0592 -1.66651,0.003 -3.33302,-0.003 -4.99952,-0.007 -1.89211,-1.2e-4 -3.78418,-0.009 -5.67623,0.008 -1.55991,0.004 -3.11984,4.7e-4 -4.67975,-6.7e-4 -1.80558,0.002 -3.61113,-0.0197 -5.41672,-0.009 -1.64206,0.005 -3.28404,0.0204 -4.92611,0.0125 -1.5527,-0.003 -3.10539,4.1e-4 -4.65809,-0.004 -1.67897,0.004 -3.35796,-0.002 -5.03693,0.006 -1.52858,-0.002 -3.05781,0.003 -4.58555,-0.0549 -1.67194,-0.075 -3.34361,-0.18114 -5.00206,-0.41486 -1.69178,-0.17567 -3.38568,-0.12389 -5.08423,-0.15613 -1.63739,-0.0524 -3.27776,-0.11704 -4.90208,-0.34392 -1.19771,-0.17987 -2.38776,-0.27191 -3.60124,-0.211 -1.18735,3.8e-4 -2.37471,0.001 -3.56206,0.003 -1.18886,0.001 -2.37777,0.005 -3.5666,-0.006 -1.20018,-0.0183 -2.40286,-0.0456 -3.59493,-0.19903 -1.16219,-0.1635 -2.30939,-0.44137 -3.48635,-0.47796 -1.04505,-0.0988 -2.07258,-0.2779 -3.0815,-0.57355 -0.99936,-0.15588 -2.00128,-0.28629 -2.9802,-0.55222 -1.05465,-0.13187 -2.12029,-0.20694 -3.14119,-0.52973 -1.23981,-0.31404 -2.52648,-0.41375 -3.74539,-0.82213 -1.35339,-0.38652 -2.72962,-0.64577 -4.10487,-0.93718 -1.06713,-0.32703 -2.11702,-0.71511 -3.20594,-0.96833 -1.25696,-0.2573 -2.50112,-0.5742 -3.76059,-0.81989 -1.61114,-0.420494 -3.22478,-0.825758 -4.86595,-1.116209 -1.46374,-0.271963 -2.91955,-0.585964 -4.37726,-0.888142 -1.18616,-0.209006 -2.37767,-0.457241 -3.58765,-0.435155 -1.21846,-0.03088 -2.43923,-0.08322 -3.64362,-0.284859 -1.31402,-0.224879 -2.62081,-0.476602 -3.95243,-0.579205 -1.16531,-0.186733 -2.34877,-0.40341 -3.45908,-0.804837 -0.8943,-0.536724 -1.486,-1.329333 -1.47506,-2.412498 0.17134,-1.016742 0.53379,-1.98471 0.52559,-3.026186 0.12505,-1.022753 0.43644,-1.996721 0.55181,-3.011879 0.10673,-1.065874 0.29395,-2.114182 0.72849,-3.102084 0.21315,-1.261741 0.58892,-2.482747 0.76901,-3.750248 0.32837,-1.396676 0.7093,-2.775386 0.97639,-4.186071 0.2053,-1.511769 0.56931,-2.98674 0.84954,-4.483775 0.23441,-1.302218 0.39551,-2.604477 0.56484,-3.918405 0.20454,-1.324667 0.22838,-2.640736 0.1961,-3.981445 0.007,-1.537219 0.0104,-3.074412 0.009,-4.611635 8e-4,-1.462348 -0.0222,-2.924475 -0.007,-4.386832 0.006,-1.538141 0.003,-3.076237 0.006,-4.614377 -0.003,-1.421311 -0.0228,-2.84256 -0.006,-4.263894 0.007,-1.55124 0.0129,-3.102469 -0.003,-4.653681 0.007,-1.547653 0.0103,-3.095307 0.0159,-4.642947 0.0118,-1.932321 0.0214,-3.86497 -0.004,-5.797185 0.0107,-1.777065 0.009,-3.554013 -0.001,-5.33108 0.01,-1.842135 0.0147,-3.684312 0.0165,-5.526465 -0.0175,-1.657159 -0.0319,-3.313893 -0.0138,-4.971215 -0.003,-1.742682 0.01,-3.485379 0.002,-5.228069 0.004,-1.708985 0.0177,-3.418817 -0.0316,-5.127216 l 7.85081,-4.000186 z"
     inkscape:connector-curvature="0"
     sodipodi:nodetypes="ccccccccccccccccccccccccccccccccccccccccccccccccccccccccccccccccccccccccccccccccccccccccccccccccccccccccccccccccccccccccccccccccc" />
  <path
     style="fill:#000000;fill-opacity:0;fill-rule:evenodd"
     d="m 362.16012,29.179291 -7.27734,4.972656 c 0.77044,0.186893 1.43135,0.563728 2.16992,0.828125 1.09534,0.436128 2.22172,0.757053 3.29883,1.246094 1.14458,0.320697 2.27403,0.694677 3.41797,1.007813 1.36284,0.417141 2.69173,0.924934 4.08203,1.259765 2.14391,0.525517 4.17416,1.363034 6.2539,2.091797 1.90466,0.713094 3.87174,1.279712 5.66993,2.25 1.30274,0.713709 2.706,1.210356 3.99023,1.960938 1.37171,0.692689 2.83827,1.204807 4.1875,1.953124 1.48873,0.671342 2.96722,1.381953 4.39844,2.166016 1.33568,0.923628 2.83785,1.552259 4.23242,2.38086 1.21455,0.718953 2.46557,1.372988 3.67773,2.09375 3.01855,-0.05905 6.03762,-0.09981 9.05665,-0.05469 1.8797,0.0067 3.75918,5e-4 5.63867,0 -0.62038,-0.40034 -1.2411,-0.799864 -1.85938,-1.203125 -1.4267,-0.929636 -2.86642,-1.835864 -4.31055,-2.738281 -1.58656,-1.016254 -3.24813,-1.902699 -4.87695,-2.847656 -1.35329,-0.857334 -2.83799,-1.482995 -4.18164,-2.351563 -1.42176,-0.897916 -2.97711,-1.556763 -4.49609,-2.269531 -1.36148,-0.688734 -2.75002,-1.319954 -4.13086,-1.966797 -1.29592,-0.718898 -2.68016,-1.251002 -4,-1.919922 -1.83184,-1.00512 -3.84493,-1.598342 -5.80078,-2.304687 -2.08505,-0.737336 -4.13527,-1.566348 -6.26172,-2.179688 -1.3474,-0.369709 -2.67259,-0.796794 -3.98828,-1.263672 -1.14923,-0.357086 -2.30451,-0.688581 -3.46094,-1.021484 -1.06084,-0.428835 -2.15818,-0.763072 -3.21875,-1.191406 -0.75439,-0.263177 -1.45638,-0.636382 -2.21094,-0.898438 z"
     id="path922"
     inkscape:connector-curvature="0"
     sodipodi:nodetypes="ccccccccccccccccccccccccccccc" />
  <path
     style="fill:#000000;fill-opacity:0;fill-rule:evenodd"
     d="m 409.42379,59.271088 c 0.14109,0.0946 0.28272,0.18868 0.42383,0.283203 l 0.45117,-0.283203 c -0.29165,-8.13e-4 -0.58335,0.0011 -0.875,0 z"
     id="path904"
     inkscape:connector-curvature="0"
     sodipodi:nodetypes="cccc" />
  <g
     style="fill:#ff0000"
     id="g37"
     transform="matrix(0.95260617,0,0,0.88121074,0.78704407,-15.71698)">
    <path
       id="path26"
       d="m 234.00765,41.900485 v 23.722722 h 4.75984 4.75983 V 41.900485 18.177763 h -4.75983 -4.75984 z M 459.30651,26.290934 v 8.113172 l -5.02427,-0.487696 c -5.56688,-0.540657 -10.33835,2.004846 -14.35037,7.655268 -2.8284,3.98321 -2.70993,11.738885 0.25598,16.746034 3.30543,5.578702 7.51101,7.180813 18.89125,7.199571 l 9.74708,0.01655 V 41.85635 18.177763 h -4.75983 -4.75984 z M 170.01432,20.779539 c -7.51843,3.626817 -10.75617,11.59986 -7.43381,18.302908 1.35814,2.739699 3.6619,4.499593 9.69737,7.408109 6.68281,3.220774 7.86431,4.19175 7.58612,6.233008 -0.48445,3.550684 -6.4977,3.929144 -10.71809,0.675269 l -3.18909,-2.459438 -3.05476,3.567234 c -3.60477,4.208301 -2.90773,5.811516 3.93904,9.060977 8.83319,4.190646 19.81677,1.217031 23.23222,-6.291487 3.66613,-8.059104 0.70446,-14.315283 -8.56876,-18.102092 -7.27303,-2.969202 -10.56049,-6.151357 -8.73271,-8.449701 1.63738,-2.057808 3.98451,-1.900025 8.39105,0.562725 l 3.71268,2.076565 2.83157,-4.110099 2.83158,-4.108998 -4.06914,-2.385523 c -5.29293,-3.102711 -12.36393,-3.954509 -16.45527,-1.979457 z M 338.4744,20.338186 c -16.12844,5.298442 -21.79582,24.473022 -11.01848,37.277775 4.17489,4.9586 10.41451,7.958697 16.55682,7.958697 5.29293,0 12.21902,-2.876518 15.11723,-6.278245 1.84152,-2.161526 1.80239,-2.308276 -1.40257,-5.120798 -3.75815,-3.299113 -4.94916,-3.482275 -7.83468,-1.205997 -1.12967,0.89043 -3.91365,1.619765 -6.18779,1.619765 -5.43785,0 -11.32735,-5.707797 -11.32735,-10.978654 0,-5.146176 2.83052,-9.949199 6.91128,-11.727852 4.97455,-2.168147 7.02235,-1.978365 11.2988,1.049316 l 3.69574,2.61612 4.02788,-3.527514 4.02681,-3.526398 -3.60901,-2.813637 c -1.98537,-1.546943 -4.56204,-3.322285 -5.72555,-3.945697 -3.1711,-1.698104 -11.24802,-2.474885 -14.52913,-1.396881 z m -79.90282,2.867702 c -1.3391,0.977597 -2.35136,2.877622 -2.35136,4.41353 0,3.151249 1.25554,3.434818 3.73911,0.844088 1.41526,-1.476326 2.12607,-1.586686 3.51276,-0.54399 4.64137,3.491113 6.34116,3.859643 9.09975,1.975065 1.68074,-1.149724 2.68772,-2.861059 2.68772,-4.570199 0,-3.197602 -0.76369,-3.377476 -4.07442,-0.957758 -2.2752,1.662798 -2.56079,1.627489 -4.50704,-0.551691 -2.47087,-2.76618 -4.90474,-2.949319 -8.10652,-0.609045 z m -53.96173,12.260774 c -3.88296,1.99602 -8.69357,9.610462 -8.6576,13.702907 0.0402,4.572417 3.90624,11.881222 7.48563,14.151983 2.7734,1.759895 5.34583,2.158216 13.93574,2.158216 h 10.53404 l -0.42627,-10.175393 c -0.33953,-8.07676 -0.91389,-10.996309 -2.78503,-14.155292 -4.12625,-6.964551 -12.81348,-9.422886 -20.08651,-5.682421 z m 52.92303,0.359704 c -10.05595,6.395204 -10.0898,21.189355 -0.0634,27.550355 2.71099,1.720173 5.34054,2.146078 13.23129,2.146078 h 9.84757 V 55.25362 c 0,-8.839197 -0.33425,-10.789977 -2.40107,-14.01737 -4.61599,-7.208397 -13.93997,-9.6557 -20.61432,-5.409884 z m 36.77554,-0.154474 c -4.95763,2.773903 -8.83319,10.398276 -7.91296,15.568726 1.61093,9.049942 7.28572,14.382589 15.30763,14.382589 6.06086,0 10.94762,-3.339938 13.76333,-9.405231 6.39192,-13.773523 -8.1023,-27.849372 -21.158,-20.546084 z m 79.73993,-0.470041 c -7.26985,3.30132 -10.81117,14.080263 -7.08793,21.572229 1.05034,2.111875 3.57518,5.011563 5.61132,6.44265 3.06428,2.154906 4.68791,2.520125 9.42554,2.122908 5.10677,-0.427009 6.17403,-0.983113 9.90469,-5.155003 4.06066,-4.540418 4.16855,-4.865916 3.72958,-11.1894 -0.34376,-4.961911 -1.06514,-7.198468 -3.02936,-9.390888 -5.27708,-5.893165 -11.84142,-7.450038 -18.55384,-4.402496 z m 32.76036,3.242841 -4.62022,4.820678 v 11.242362 11.242364 l 4.49541,-0.339841 4.49539,-0.338739 0.31098,-9.323581 c 0.33002,-9.914995 1.23967,-12.202306 4.84234,-12.175825 4.59271,0.03531 5.39871,1.633006 5.95296,11.801778 l 0.52888,9.697628 4.49539,0.338739 4.49541,0.339841 V 54.737237 c 0,-10.270284 -0.18616,-11.243467 -2.77023,-14.446586 -3.69257,-4.577934 -7.82094,-6.665533 -13.18263,-6.665533 -3.81104,0 -5.06128,0.666443 -9.04368,4.819574 z m 76.20285,-2.733079 c -6.20578,3.947903 -8.09808,7.628786 -7.60622,14.796359 0.3829,5.585322 0.92552,6.907174 4.25846,10.385035 3.224,3.362006 4.69743,4.057137 9.44774,4.455458 4.63291,0.38839 6.28405,0.01103 9.3314,-2.131735 9.55246,-6.715185 9.6064,-20.467743 0.10788,-27.086934 -4.45519,-3.104918 -11.03647,-3.282563 -15.53926,-0.418183 z M 69.310468,37.368895 c 0,3.484481 -2.902442,4.540418 -5.706513,2.075462 -2.203275,-1.937541 -2.207506,-1.933126 -0.350113,0.365219 2.503674,3.099401 1.346505,5.727658 -2.759646,6.265005 l -3.347751,0.438043 3.437659,0.176542 c 2.249815,0.115854 3.437659,0.739266 3.437659,1.806237 0,2.606189 4.877244,5.33706 8.049409,4.507316 1.920858,-0.503142 3.472565,-0.114752 5.032727,1.256753 2.24982,1.980571 2.250878,1.979468 0.308861,-0.418182 -2.575594,-3.179948 -1.485063,-6.697531 2.261455,-7.293357 l 2.858021,-0.454594 -2.795615,-0.165508 c -3.51382,-0.208538 -4.696369,-3.142432 -2.354535,-5.84241 0.976299,-1.12545 1.284102,-2.046773 0.6833,-2.046773 -0.599739,0 -1.660654,0.714991 -2.356641,1.589973 -1.769602,2.22442 -4.282795,0.898153 -4.282795,-2.259726 0,-1.452052 -0.475983,-2.640395 -1.057741,-2.640395 -0.581757,0 -1.057741,1.188343 -1.057741,2.640395 z M 215.03813,44.69756 c 2.34501,1.309715 2.8432,7.515138 0.77637,9.671147 -2.18423,2.278484 -6.98531,1.57563 -8.78348,-1.285441 -3.57304,-5.690143 2.13241,-11.664958 8.00711,-8.385706 z m 54.05586,0.684097 c 3.75604,3.545168 1.3867,10.311109 -3.61113,10.311109 -5.14909,0 -7.78498,-6.146944 -4.33885,-10.119121 2.17682,-2.50909 5.41246,-2.587431 7.94998,-0.191988 z m 36.89401,0.436939 c 3.56882,3.722813 0.83456,9.87417 -4.38963,9.87417 -4.03739,0 -6.71771,-4.067067 -5.28024,-8.010557 1.66382,-4.565795 6.23538,-5.446296 9.66987,-1.863613 z m 78.67267,-0.529623 c 5.45689,5.693453 -2.31329,13.983165 -8.03883,8.577695 -2.5206,-2.378892 -2.45397,-5.355819 0.18087,-8.104344 2.54069,-2.650325 5.59333,-2.834589 7.85796,-0.473351 z m 73.23588,1.151932 c 1.62469,2.586328 1.65113,3.187671 0.25385,5.792757 -3.07167,5.727658 -10.47904,3.893837 -10.47904,-2.592948 0,-6.303625 6.91657,-8.467357 10.22519,-3.199809 z m 36.4963,-1.059248 c 2.36828,2.235453 2.45607,4.630896 0.28771,7.858289 -3.08544,4.596692 -9.98826,2.097531 -9.98826,-3.615783 0,-5.371266 5.81335,-7.913459 9.70055,-4.242506 z M 99.985001,54.51987 c 0,5.338164 -0.06872,5.454019 -3.437666,5.792758 -3.398531,0.340945 -3.44084,0.417078 -3.754989,6.689807 -0.310977,6.215354 -0.380787,6.344449 -3.437663,6.344449 -2.795618,0 -3.120345,0.36191 -3.120345,3.481171 0,3.302424 -0.09943,3.387385 -1.934613,1.655074 -1.064088,-1.004078 -3.206017,-1.826098 -4.759844,-1.826098 -2.591469,0 -2.82523,-0.366322 -2.82523,-4.41353 0,-4.168578 -0.176643,-4.413529 -3.173219,-4.413529 -2.820995,0 -3.173223,0.367426 -3.173223,3.310148 0,3.125881 -0.234818,3.310147 -4.230964,3.310147 -4.220387,0 -4.230965,-0.01 -4.230965,-4.350638 0,-3.24615 -0.597624,-4.787576 -2.351358,-6.068603 -4.167501,-3.045335 -4.93119,-2.224418 -5.325727,5.729865 -0.338477,6.801249 -0.388191,6.583883 -0.577526,-2.512402 -0.147027,-7.066061 -0.699167,-10.693982 -1.900761,-12.483668 -1.61094,-2.398753 -1.791814,-2.429648 -3.702094,-0.625617 -1.668058,1.574526 -2.032979,3.595922 -2.152503,11.930873 -0.07933,5.519119 -0.350113,8.91864 -0.602913,7.552653 -0.286648,-1.55246 -1.223807,-2.48261 -2.5005,-2.48261 -1.720945,0 -2.04144,-0.796643 -2.04144,-5.066733 v -5.066732 l -3.437659,2.086497 c -2.947925,1.789686 -3.527566,2.865484 -4.0649,7.549342 -0.467521,4.070378 -0.669549,2.578605 -0.793305,-5.846823 L 32.289528,53.486 h -3.173224 -3.173222 v 8.275369 8.275368 h -4.230965 -4.230965 v 5.802688 5.802688 L 8.7547894,83.838947 0.02842711,86.035782 34.592231,86.327074 c 19.010781,0.159992 50.425704,0.159992 69.810959,0 l 35.24713,-0.291292 -8.9908,-2.307173 -8.9908,-2.30607 -0.30462,-10.106981 -0.30358,-10.10588 h -3.09389 -3.0939 l -0.34904,10.206287 c -0.25809,7.555962 -0.40618,5.979229 -0.56801,-6.068603 l -0.22002,-16.274891 h -6.87532 -6.875339 z M 62.964022,52.93431 c -0.747823,0.940081 -1.121207,1.956296 -0.830327,2.259727 0.290879,0.30343 1.140244,-0.216263 1.888068,-1.156345 0.747822,-0.940082 1.121205,-1.956297 0.830326,-2.259727 -0.290878,-0.30343 -1.140245,0.216263 -1.888067,1.156345 z m 6.346446,3.861838 c 0,1.213721 0.475984,2.206765 1.057741,2.206765 0.581758,0 1.057741,-0.993044 1.057741,-2.206765 0,-1.21372 -0.475983,-2.206765 -1.057741,-2.206765 -0.581757,0 -1.057741,0.993045 -1.057741,2.206765 z M 187.46704,94.31115 c 0,7.1102 0.30886,8.82706 1.58661,8.82706 1.27776,0 1.58661,-1.71686 1.58661,-8.82706 0,-7.110197 -0.30885,-8.82706 -1.58661,-8.82706 -1.27775,0 -1.58661,1.716863 -1.58661,8.82706 z m 8.4154,-7.113507 c -0.61455,0.772368 0.30039,1.198273 2.73425,1.269993 2.11443,0.06289 3.65873,-0.428112 3.65873,-1.161861 0,-1.591077 -5.14379,-1.678244 -6.39298,-0.108132 z m 38.12521,1.173999 c 0,2.253107 -0.42415,2.770593 -1.9346,2.359032 -3.84384,-1.048214 -7.06042,3.737155 -5.862,8.721134 0.74465,3.092772 3.72218,4.664002 7.43592,3.922532 2.34712,-0.46784 2.47617,-0.94781 2.47617,-9.192286 0,-5.063422 -0.44214,-8.697964 -1.05774,-8.697964 -0.58177,0 -1.05775,1.298681 -1.05775,2.887552 z m 111.06282,-0.129096 c 0,2.32262 -0.49608,2.758456 -3.1362,2.758456 -3.46833,0 -5.32573,2.467164 -5.32573,7.073785 0,3.568343 3.75181,6.213143 7.66863,5.405473 2.87811,-0.59363 2.90879,-0.68962 2.90879,-9.298206 0,-5.063422 -0.44214,-8.697964 -1.05775,-8.697964 -0.58175,0 -1.05774,1.241306 -1.05774,2.758456 z m 13.96219,-1.434396 c -0.69811,0.728231 -1.26929,1.969537 -1.26929,2.758456 0,0.788918 -0.57119,1.434396 -1.26929,1.434396 -0.98688,0 -0.98688,0.294603 0,1.32406 0.6981,0.728232 1.26929,3.459103 1.26929,6.068603 0,2.609495 0.47598,4.744545 1.05774,4.744545 0.58175,0 1.05774,-2.0556 1.05774,-4.568004 0,-3.05637 0.61244,-5.052389 1.85105,-6.033295 1.76325,-1.395779 1.76325,-1.467499 0,-1.500601 -2.26463,-0.04303 -2.44656,-2.073255 -0.26444,-2.94603 0.87263,-0.349772 1.58661,-1.079109 1.58661,-1.62087 0,-1.424466 -2.53434,-1.210409 -4.01941,0.33874 z m 94.98515,1.434396 c 0,2.142769 -0.54262,2.758456 -2.43281,2.758456 -3.32236,0 -4.97455,2.004846 -4.95551,6.013434 0.0265,5.423124 1.33592,6.572844 7.12388,6.253964 2.25934,-0.12357 2.37992,-0.57706 2.37992,-8.95725 0,-5.149486 -0.44107,-8.82706 -1.05774,-8.82706 -0.58175,0 -1.05774,1.241306 -1.05774,2.758456 z M 161.0965,88.651902 c -1.60671,3.131399 -0.403,5.392229 3.69364,6.936964 4.36212,1.646247 5.33947,3.802256 2.45289,5.413194 -1.71142,0.95553 -2.59041,0.80658 -4.19817,-0.71168 -2.10596,-1.988296 -3.85018,-1.553564 -2.55339,0.63555 1.54113,2.60177 5.98047,3.4602 8.6079,1.665 3.81105,-2.605085 3.17005,-5.672488 -1.72941,-8.27978 -2.32703,-1.237996 -4.23096,-2.986856 -4.23096,-3.883906 0,-2.31269 4.94283,-2.082083 6.21422,0.289086 0.56696,1.05704 1.4068,1.529288 1.86692,1.05042 1.62787,-1.699209 -1.44699,-4.629793 -5.21043,-4.965221 -2.90455,-0.259294 -4.05221,0.173231 -4.91321,1.850373 z m 97.2392,6.210939 c 0,6.620299 0.31732,8.275369 1.58661,8.275369 1.05774,0 1.58662,-1.10338 1.58662,-3.310149 0,-2.94272 0.35222,-3.310147 3.17322,-3.310147 1.74527,0 3.17322,-0.496521 3.17322,-1.103382 0,-0.60686 -1.42795,-1.103382 -3.17322,-1.103382 -2.67926,0 -3.17322,-0.429216 -3.17322,-2.758456 0,-2.416408 0.458,-2.758456 3.70208,-2.758456 2.03616,0 3.7021,-0.496523 3.7021,-1.103383 0,-0.606861 -2.37992,-1.103382 -5.28871,-1.103382 h -5.2887 z m 65.57996,0 v 8.275369 h 5.3511 c 3.29804,0 5.10043,-0.4237 4.69743,-1.10338 -0.35963,-0.60686 -2.29107,-1.10338 -4.29337,-1.10338 -3.17745,0 -3.63969,-0.35088 -3.63969,-2.758462 0,-2.416407 0.458,-2.758456 3.7021,-2.758456 2.03614,0 3.70209,-0.496522 3.70209,-1.103382 0,-0.606861 -1.66595,-1.103383 -3.70209,-1.103383 -2.99658,0 -3.7021,-0.420388 -3.7021,-2.206765 0,-1.839338 0.70552,-2.206764 4.23096,-2.206764 2.32704,0 4.23097,-0.496523 4.23097,-1.103383 0,-0.606861 -2.37991,-1.103382 -5.28871,-1.103382 h -5.28869 z m 26.44352,-7.171986 c 0,0.60686 0.71398,1.103383 1.58662,1.103383 0.87263,0 1.58661,-0.496523 1.58661,-1.103383 0,-0.606861 -0.71398,-1.103382 -1.58661,-1.103382 -0.87264,0 -1.58662,0.496521 -1.58662,1.103382 z m 14.80837,0 c 0,0.60686 0.71398,1.103383 1.58662,1.103383 0.87263,0 1.58661,-0.496523 1.58661,-1.103383 0,-0.606861 -0.71398,-1.103382 -1.58661,-1.103382 -0.87264,0 -1.58662,0.496521 -1.58662,1.103382 z m 19.03935,0 c 0,0.60686 0.44742,1.103383 0.99533,1.103383 0.54791,0 1.28938,-0.496523 1.64902,-1.103383 0.35963,-0.606861 -0.0888,-1.103382 -0.99534,-1.103382 -0.90648,0 -1.64901,0.496521 -1.64901,1.103382 z m 26.44353,7.171986 c 0,4.780956 0.44636,8.275369 1.05773,8.275369 0.58176,0 1.05774,-1.48956 1.05774,-3.310149 0,-3.008923 0.31732,-3.310147 3.49055,-3.310147 3.85652,0 6.02912,-1.641832 6.02912,-4.555865 0,-3.181052 -3.05264,-5.374576 -7.47928,-5.374576 h -4.15586 z m 88.85025,-7.171986 c 0,0.60686 0.47598,1.103383 1.05774,1.103383 0.58176,0 1.05774,-0.496523 1.05774,-1.103383 0,-0.606861 -0.47598,-1.103382 -1.05774,-1.103382 -0.58176,0 -1.05774,0.496521 -1.05774,1.103382 z m -202.02855,1.563493 c 0,0.859535 -0.59445,1.852579 -1.32218,2.206764 -1.05774,0.514177 -1.05774,0.772368 0,1.286545 0.72773,0.354186 1.32218,2.527848 1.32218,4.830608 0,2.40427 0.68646,4.779855 1.61199,5.582005 1.95471,1.69259 3.52016,0.47667 1.75479,-1.36488 -1.65748,-1.729 -1.60671,-8.23123 0.0708,-9.047733 1.05774,-0.514177 1.05774,-0.772368 0,-1.286545 -0.72667,-0.354185 -1.32218,-1.347229 -1.32218,-2.206764 0,-0.860638 -0.47598,-1.563493 -1.05774,-1.563493 -0.58175,0 -1.05773,0.702855 -1.05773,1.563493 z m 121.92476,0.919117 c 0.85888,2.566468 -0.49714,4.137685 -3.57094,4.137685 -2.55867,0 -3.06005,-0.451284 -3.06005,-2.758456 0,-2.311587 0.49926,-2.758456 3.08544,-2.758456 1.69661,0 3.29274,0.621204 3.54555,1.379227 z m -242.24282,0.936772 c -1.30948,0.507556 -2.37992,1.435501 -2.37992,2.062222 0,1.420054 0.67167,1.43219 3.13198,0.05848 1.40573,-0.784505 2.29,-0.633341 3.23245,0.551691 1.0863,1.364884 0.87264,1.631903 -1.3116,1.631903 -1.43535,0 -3.43554,0.952219 -4.44569,2.117391 -1.74738,2.013672 -1.73786,2.220005 0.20521,4.246916 1.44381,1.50611 3.01667,1.98057 5.37438,1.61866 3.12562,-0.47776 3.33189,-0.79333 3.31707,-5.073347 -0.0243,-6.709669 -2.34924,-9.065391 -7.12388,-7.213915 z m 18.56229,1.126554 -2.43174,2.227728 2.95744,-0.662028 c 4.46685,-1.000768 5.83662,0.658719 1.69556,2.054497 -6.73146,2.269658 -4.47424,8.992572 2.54916,7.591272 2.81254,-0.56052 2.93311,-0.84078 2.63272,-6.120463 -0.25809,-4.533798 -0.73513,-5.694557 -2.6433,-6.426099 -1.69873,-0.652099 -2.986,-0.291293 -4.75984,1.335093 z m 14.90993,-1.544735 c -2.5079,0.604653 -4.49752,5.207964 -3.6947,8.5468 1.32853,5.523534 7.91826,5.591944 10.31298,0.109234 1.87432,-4.291054 -2.26462,-9.704248 -6.61828,-8.656034 z m 31.48049,1.473014 c -5.82816,4.783164 -1.43642,13.50871 5.45476,10.83742 1.34652,-0.52189 2.1504,-1.45094 1.78759,-2.06442 -0.40088,-0.67528 -1.3666,-0.73817 -2.44867,-0.1589 -2.26462,1.21372 -4.43088,0.43363 -4.43088,-1.59438 0,-1.05704 1.22381,-1.563493 3.77614,-1.563493 3.25573,0 3.72854,-0.324395 3.43765,-2.355721 -0.18616,-1.296475 -1.33486,-3.043129 -2.55232,-3.8817 -1.95047,-1.343919 -2.54704,-1.251235 -5.02427,0.781194 z m 64.67241,-0.04193 c -2.48041,2.157113 -1.57604,2.985753 1.23438,1.130967 0.99428,-0.655409 2.06577,-0.579276 2.97966,0.212954 1.13813,0.98532 0.7182,1.477429 -2.06683,2.419717 -6.4554,2.184696 -4.54299,8.533562 2.25617,7.493072 2.98917,-0.4579 3.21235,-0.81099 3.19754,-5.0557 -0.0265,-7.249223 -3.31285,-9.930442 -7.60092,-6.20101 z m 155.22034,0.381771 c -1.48084,1.544735 -2.69302,3.360902 -2.69302,4.035069 0,2.060016 2.06154,5.38893 3.99086,6.44266 2.22866,1.21813 7.00965,-0.44357 6.03125,-2.09533 -0.48446,-0.81871 -1.09583,-0.8154 -2.04885,0.0101 -1.6871,1.45977 -4.80003,0.33212 -4.80003,-1.738941 0,-1.027248 1.25342,-1.537011 3.77613,-1.537011 3.25573,0 3.72854,-0.324395 3.43767,-2.355721 -0.18616,-1.296475 -1.38776,-3.079541 -2.66975,-3.963351 -2.13452,-1.470808 -2.55867,-1.369296 -5.02426,1.202688 z m 15.32772,-1.529288 c -0.78908,0.508659 -2.07211,0.66865 -2.85167,0.356392 -1.08206,-0.432526 -1.41842,0.90036 -1.41842,5.619527 0,7.209508 1.84046,8.396738 2.31962,1.49729 0.26972,-3.898251 0.72666,-4.748958 2.70464,-5.042458 2.17049,-0.321084 2.37992,0.09269 2.37992,4.689375 0,2.773911 0.47598,5.042461 1.05774,5.042461 0.58175,0 1.05774,-2.46496 1.05774,-5.478297 0,-5.78062 -2.23606,-8.627347 -5.24957,-6.68429 z m -205.2039,2.159319 c -2.99869,5.844616 1.31689,12.790418 6.23856,10.042988 1.20266,-0.67196 2.18636,-1.72458 2.18636,-2.34027 0,-0.73596 -0.62513,-0.75472 -1.82356,-0.0541 -1.15716,0.67526 -2.51107,0.68078 -3.70208,0.0154 -3.15419,-1.761007 -2.10491,-3.17775 2.35242,-3.17775 4.38856,0 4.99359,-0.865052 3.13619,-4.486353 -0.70022,-1.36378 -2.2128,-2.133941 -4.19394,-2.133941 -1.98115,0 -3.49372,0.770161 -4.19395,2.133941 z m 12.96474,-0.911394 c -1.76854,1.844856 0.0318,4.970738 3.36573,5.843513 1.4692,0.385081 2.67186,1.157448 2.67186,1.716863 0,1.811756 -2.16732,2.475986 -3.71268,1.138696 -0.8282,-0.7172 -2.10595,-1.094561 -2.84109,-0.83857 -0.82609,0.28688 -0.26126,1.19938 1.47978,2.38993 2.21703,1.51494 3.28217,1.665 5.00312,0.70395 3.30227,-1.84375 2.78079,-5.455124 -0.98688,-6.825525 -4.21615,-1.532599 -4.15057,-3.624612 0.0846,-2.740802 2.33866,0.487696 3.13725,0.293499 2.82734,-0.689613 -0.57965,-1.843752 -6.30837,-2.350205 -7.89181,-0.698442 z m 65.27109,4.846055 c 0,4.658487 0.36809,6.068607 1.58662,6.068607 1.21851,0 1.58661,-1.41012 1.58661,-6.068607 0,-4.65848 -0.3681,-6.068603 -1.58661,-6.068603 -1.21853,0 -1.58662,1.410123 -1.58662,6.068603 z m 14.80837,0 c 0,4.658487 0.3681,6.068607 1.58662,6.068607 1.21851,0 1.58661,-1.41012 1.58661,-6.068607 0,-4.65848 -0.3681,-6.068603 -1.58661,-6.068603 -1.21852,0 -1.58662,1.410123 -1.58662,6.068603 z m 7.61574,-4.744543 c -2.12394,2.215592 -1.5443,8.28089 0.96783,10.11582 2.6782,1.95629 6.57598,0.83525 7.12072,-2.04788 0.34165,-1.806245 0.19779,-1.819486 -2.0425,-0.18206 -2.88446,2.10635 -5.19985,0.70837 -5.19985,-3.141337 0,-3.753706 2.52588,-5.483809 4.69848,-3.216359 1.97481,2.060015 3.28534,1.417846 2.34079,-1.149725 -0.74677,-2.029119 -6.05769,-2.285105 -7.88547,-0.378459 z m 11.42361,4.744543 c 0,4.658487 0.36809,6.068607 1.58661,6.068607 1.21852,0 1.58661,-1.41012 1.58661,-6.068607 0,-4.65848 -0.36809,-6.068603 -1.58661,-6.068603 -1.21852,0 -1.58661,1.410123 -1.58661,6.068603 z m 7.40101,-4.410218 c -2.06788,2.599568 -1.5771,7.368395 0.98052,9.528815 5.24958,4.43559 10.86513,-2.391035 7.44756,-9.053258 -1.32641,-2.585225 -6.51569,-2.878725 -8.42808,-0.475557 z m 33.85089,4.410218 c 0,3.337737 0.47598,6.068607 1.05775,6.068607 0.58175,0 1.05773,-2.23434 1.05773,-4.965224 0,-3.677574 0.41146,-4.965221 1.58662,-4.965221 0.87263,0 1.58661,-0.496521 1.58661,-1.103382 0,-0.60686 -1.18996,-1.103383 -2.64436,-1.103383 -2.50049,0 -2.64435,0.331015 -2.64435,6.068603 z m 7.40418,-3.44807 c 0,4.469803 1.23862,9.353377 2.49839,9.852107 0.66215,0.2615 2.75013,0.23723 4.64137,-0.0552 3.39006,-0.52301 3.43766,-0.61348 3.43766,-6.473553 0,-4.548143 -0.37233,-5.943921 -1.58661,-5.943921 -1.16986,0 -1.58661,1.274407 -1.58661,4.847159 0,3.140226 -0.52253,5.055705 -1.48296,5.440785 -2.20222,0.8816 -2.74801,-0.21185 -2.74801,-5.506988 0,-3.514273 -0.41992,-4.780956 -1.58661,-4.780956 -0.96466,0 -1.58662,1.027249 -1.58662,2.620533 z m 53.78826,0.05627 c -2.70571,6.193285 2.18741,12.321467 7.13658,8.938497 1.4343,-0.9798 2.30693,-2.28842 1.9399,-2.908513 -0.41464,-0.699544 -1.44382,-0.395011 -2.711,0.802153 -1.87326,1.76762 -2.18529,1.78086 -3.73488,0.16551 -1.13495,-1.183926 -1.46497,-2.701077 -1.00486,-4.615445 0.73303,-3.046439 3.53921,-3.80667 5.70546,-1.546942 1.76537,1.841545 2.931,0.208539 1.30843,-1.830512 -2.16837,-2.725354 -7.27197,-2.137252 -8.63963,0.995252 z m 12.84944,3.391796 c 0,3.337731 0.47598,6.068601 1.05774,6.068601 0.58176,0 1.05774,-2.73087 1.05774,-6.068601 0,-3.337731 -0.47598,-6.068603 -1.05774,-6.068603 -0.58176,0 -1.05774,2.730872 -1.05774,6.068603 z m 6.39087,-4.469802 c -1.13072,1.42226 -1.08207,1.711347 0.29299,1.711347 0.90861,0 1.93461,-0.474454 2.27838,-1.054834 0.66215,-1.117726 3.73065,-0.340945 3.73065,0.944495 0,0.417079 -1.54642,1.232478 -3.43766,1.812857 -6.78646,2.08429 -4.22779,8.593138 2.92995,7.455548 3.16793,-0.50314 3.19015,-0.5561 2.64435,-6.212035 -0.52252,-5.420918 -0.71292,-5.721038 -3.81316,-6.036605 -1.98643,-0.20192 -3.79623,0.337635 -4.6255,1.379227 z m -290.92323,5.038045 c 0,3.626808 -2.45713,4.986188 -4.72916,2.616118 -2.07635,-2.165939 -2.05096,-4.229264 0.0814,-6.453683 2.25088,-2.347997 4.64773,-0.368529 4.64773,3.837565 z M 399.01527,96.34578 c 0,1.076902 -0.66214,2.901896 -1.47237,4.05713 -1.25025,1.78417 -1.72729,1.87907 -3.17323,0.62783 -1.9822,-1.715757 -2.23712,-5.718829 -0.48127,-7.550444 1.63316,-1.703622 5.12687,0.249365 5.12687,2.865484 z m 67.69544,-2.586328 c 1.11591,1.4024 0.87474,1.655074 -1.58661,1.655074 -2.46137,0 -2.70254,-0.252674 -1.58662,-1.655074 0.72456,-0.91029 1.43853,-1.655073 1.58662,-1.655073 0.14808,0 0.86205,0.744783 1.58661,1.655073 z m -232.70306,3.310147 c 0,3.384071 -0.32789,3.861841 -2.64435,3.861841 -2.31645,0 -2.64435,-0.47777 -2.64435,-3.861841 0,-3.384073 0.3279,-3.861838 2.64435,-3.861838 2.31646,0 2.64435,0.477765 2.64435,3.861838 z m 13.22177,-2.758455 c 0.37127,0.625617 -0.5183,1.103382 -2.05308,1.103382 -1.48824,0 -2.70676,-0.496522 -2.70676,-1.103382 0,-0.606861 0.92341,-1.103383 2.05308,-1.103383 1.12967,0 2.34712,0.496522 2.70676,1.103383 z m 31.20336,0 c 0,0.60686 -0.95196,1.103382 -2.11548,1.103382 -1.16351,0 -2.11548,-0.496522 -2.11548,-1.103382 0,-0.606861 0.95197,-1.103383 2.11548,-1.103383 1.16352,0 2.11548,0.496522 2.11548,1.103383 z m 66.43672,2.408684 c 0.22636,2.04236 -0.31309,3.317862 -1.73998,4.114512 -2.78927,1.55687 -4.88888,-1.054833 -3.95701,-4.925499 0.96149,-3.997554 5.23158,-3.390693 5.69699,0.810987 z m 109.14831,0.23171 c 0,3.956732 -2.06048,5.802692 -4.10191,3.673162 -1.30103,-1.357163 -1.60037,-5.514708 -0.48128,-6.680982 0.38713,-0.404942 1.57709,-0.735957 2.64435,-0.735957 1.49882,0 1.93884,0.848501 1.93884,3.743777 z m -272.09862,2.048981 c -0.50454,1.596591 -5.02956,2.576391 -5.02956,1.087931 0,-1.575626 1.24285,-2.467159 3.43767,-2.467159 1.1487,0 1.83834,0.598033 1.59189,1.379228 z m 19.03935,0 c -0.50455,1.596591 -5.02957,2.576391 -5.02957,1.087931 0,-1.575626 1.24285,-2.467159 3.43766,-2.467159 1.1487,0 1.83836,0.598033 1.59191,1.379228 z m 111.06281,0 c -0.50454,1.596591 -5.02956,2.576391 -5.02956,1.087931 0,-1.575626 1.24285,-2.467159 3.43766,-2.467159 1.14871,0 1.83835,0.598033 1.5919,1.379228 z m 200.17222,0.157783 c 0,2.143868 -2.78503,3.038718 -4.14423,1.330678 -1.34968,-1.697001 -0.44953,-2.867689 2.20539,-2.867689 1.0662,0 1.93884,0.69182 1.93884,1.537011 z"
       inkscape:connector-curvature="0"
       style="clip-rule:evenodd;fill:#405971;fill-rule:evenodd;stroke-width:1.08032072;fill-opacity:1"
       sodipodi:nodetypes="ccccccccccccccccccccccccccccccccccccccccscccsscccccccccscccsccccccsccccccscsccccsccccccccccccccccccccccscsccccccccscccccscccccccscssscscccsccsscsccscccscccscsccsscsssssscccccccsscccccccccccccccccccccccccccccssssssssssssssssccscscccsssssscsssssssssscccssssccssscccccccsccccsssssssssscsccscsssssssssccssssssssssssssssssssscsssssssccscsccssscsssccsccscscccccccccccccccccccssccccccccccsscccssccsccsccssscccsccscscscscccccccsssssssssssscccsccssssssccccssssssssccssscsssccccccsccssssscscscccccsssssccsscscscssssscssscsssssccccsscsscssccssccsscscss" />
  </g>
</svg>
